<?xml version="1.0" encoding="utf-8"?>
<!DOCTYPE svg PUBLIC "-//W3C//DTD SVG 1.0//EN" "http://www.w3.org/TR/2001/REC-SVG-20010904/DTD/svg10.dtd">
<svg version="1.0" xmlns="http://www.w3.org/2000/svg" width="750px" height="194px" viewBox="0 0 750 194" preserveAspectRatio="xMidYMid meet">
 <g fill="#ffffff">
  <path d="M0 96.77 l0 -96.77 375 0 375 0 0 96.77 0 96.77 -375 0 -375 0 0 -96.77z m78.36 56.55 c4.16 -0.79 7.14 -2.46 10.55 -5.90 3.44 -3.40 5.29 -6.92 6.05 -11.19 1.63 -9.60 -6.12 -20.26 -16.48 -22.64 -7.94 -1.85 -17.58 3.18 -21.55 11.19 -2.53 5.18 -2.99 9.83 -1.36 14.48 1.21 3.52 2.34 5.29 5.25 8.17 3.14 3.10 6.20 4.88 10.09 5.82 2.91 0.72 4.04 0.72 7.45 0.08z m93.07 -0.30 c5.33 -1.40 10.24 -5.56 13.23 -11.19 1.06 -2 1.25 -2.19 3.02 -2.61 1.06 -0.23 2.65 -0.45 3.59 -0.45 2.34 -0.08 5.97 -0.98 6.77 -1.70 0.38 -0.34 0.87 -0.60 1.10 -0.60 0.79 0 5.22 -4.50 6.20 -6.31 2.15 -3.97 2.27 -4.84 2.12 -20.41 l-0.15 -14.29 -1.06 -3.21 c-4.04 -12.13 -12.74 -20.45 -24.50 -23.48 -2.87 -0.76 -4.39 -0.83 -17.20 -0.98 l-14.06 -0.19 -0.23 -1.36 c-2.12 -13.23 -10.13 -23.02 -22.19 -27.14 -4.99 -1.70 -6.01 -1.74 -44.72 -1.59 -36.55 0.15 -36.67 0.15 -39.31 0.98 -11.64 3.67 -19.58 11.57 -23.14 23.02 l-1.06 3.33 -0.11 24.04 c-0.11 26.01 -0.08 26.69 1.93 31.72 2.95 7.22 9.60 14.06 16.52 16.86 3.36 1.36 5.22 1.51 6.73 0.53 1.66 -1.02 2.80 -3.48 2.27 -4.99 -0.60 -1.74 -2.31 -3.14 -4.73 -3.89 -6.50 -2 -10.85 -6.24 -12.36 -12.10 -0.53 -1.93 -0.60 -5.82 -0.60 -26.84 0 -26.99 0.04 -27.10 2.31 -31.64 1.17 -2.34 5.33 -7.11 6.20 -7.11 0.26 0 0.76 -0.34 1.13 -0.76 0.38 -0.42 0.91 -0.76 1.21 -0.76 0.26 0 0.91 -0.23 1.36 -0.53 0.45 -0.30 1.85 -0.76 3.10 -1.02 1.25 -0.26 2.42 -0.60 2.61 -0.79 0.23 -0.15 17.31 -0.30 38.03 -0.30 41.47 0 39.73 -0.08 44.38 2.38 2.68 1.40 6.31 4.95 8.05 7.86 0.68 1.13 1.59 3.40 2 5.03 0.72 2.80 0.76 4.16 0.76 21.55 0 18.52 0 18.60 0.87 20.26 0.60 1.25 1.29 1.93 2.49 2.53 l1.66 0.87 1.55 -0.87 c1.06 -0.57 1.81 -1.40 2.42 -2.53 0.79 -1.63 0.83 -1.97 0.83 -13.80 0 -8.92 0.11 -12.25 0.45 -12.59 0.76 -0.76 27.41 -0.64 30.36 0.11 5.25 1.36 10.17 4.88 13.12 9.41 0.79 1.25 1.89 3.63 2.46 5.29 l1.02 3.06 0.15 14.18 c0.11 14.18 0.11 14.18 -0.76 15.88 -0.49 0.95 -1.44 2.08 -2.15 2.53 -1.13 0.76 -1.78 0.87 -5.14 0.87 l-3.86 0 -0.87 -2.34 c-2.87 -7.94 -10.43 -13.53 -18.26 -13.53 -5.29 0 -9.38 1.66 -13.72 5.52 -2.99 2.65 -4.76 5.10 -5.71 7.94 -0.30 1.02 -0.76 2.08 -0.98 2.34 -0.26 0.34 -4.76 0.45 -20.19 0.45 -21.70 0 -20.94 -0.08 -22.95 2.27 -0.53 0.68 -0.98 1.63 -0.98 2.15 0 1.44 1.36 3.36 2.95 4.12 1.29 0.68 2.76 0.72 21.06 0.79 10.81 0.04 19.85 0.08 20.07 0.08 0.23 0.04 0.64 0.72 0.91 1.55 1.40 4.23 6.58 9.41 11.57 11.53 3.82 1.63 8.43 1.97 12.44 0.87z m124.37 -13.91 c0.11 -0.19 0.79 -0.38 1.47 -0.38 0.64 0 1.36 -0.15 1.59 -0.30 0.19 -0.19 1.10 -0.53 2.04 -0.79 5.29 -1.40 12.02 -5.56 15.99 -9.79 2.34 -2.53 2.68 -3.48 1.93 -5.29 -0.76 -1.81 -1.89 -2.99 -3.36 -3.48 -1.70 -0.57 -2.68 -0.11 -6.35 3.02 -5.86 5.03 -11.76 7.18 -19.73 7.18 -10.55 0 -19.01 -4.12 -24.61 -11.98 -3.70 -5.18 -5.14 -9.98 -5.14 -17.12 0 -5.78 0.64 -9.11 2.65 -13.31 2.68 -5.75 8.54 -11.79 12.06 -12.59 0.68 -0.11 1.32 -0.42 1.47 -0.60 1.21 -1.97 12.78 -3.89 18.45 -3.06 5.44 0.79 10.13 2.76 13.76 5.78 1.17 1.02 2.68 2.27 3.36 2.84 0.68 0.53 1.85 1.06 2.65 1.17 1.25 0.15 1.63 0 2.84 -1.10 0.79 -0.68 1.70 -1.85 2 -2.61 0.49 -1.32 0.49 -1.47 -0.45 -3.36 -1.59 -3.21 -8.24 -8.01 -14.59 -10.58 -5.59 -2.23 -8.81 -2.76 -15.57 -2.53 -5.03 0.15 -6.62 0.38 -9.45 1.17 -7.14 2.08 -13.12 5.67 -18.22 10.92 -7.07 7.26 -11.15 16.22 -11.72 25.82 -1.13 19.28 13.57 37.16 33.53 40.79 3.36 0.60 13.08 0.76 13.42 0.19z m84.49 -0.98 c7.45 -2.08 17.46 -8.73 19.32 -12.78 0.91 -2 -0.49 -4.76 -3.10 -6.09 -1.59 -0.83 -3.29 -0.23 -5.78 2.04 -6.31 5.75 -12.25 7.98 -21.06 7.98 -5.86 0 -9.30 -0.79 -14.25 -3.25 -7.83 -3.93 -13.27 -11.11 -15.05 -19.77 -0.76 -3.86 -0.57 -11.04 0.42 -14.59 2.49 -9.07 9.83 -16.94 18.15 -19.39 12.29 -3.63 23.66 -1.74 31.26 5.18 2.84 2.57 4.20 3.21 5.75 2.68 0.68 -0.23 1.66 -0.87 2.19 -1.44 2.61 -2.80 2.38 -4.50 -1.13 -8.01 -4.35 -4.31 -10.77 -7.75 -18.18 -9.75 -3.14 -0.83 -4.35 -0.95 -9.03 -0.91 -6.01 0.04 -9.56 0.72 -14.63 2.72 -12.51 4.95 -21.51 15.23 -25.03 28.62 -1.29 4.99 -1.40 11.61 -0.19 16.41 3.44 13.91 12.63 24.27 25.86 29.11 5.44 2.04 8.88 2.57 15.05 2.46 4.69 -0.08 6.05 -0.26 9.45 -1.21z m87.40 0.34 c0.53 -0.60 1.32 -1.66 1.78 -2.38 0.76 -1.29 0.79 -1.78 0.79 -14.93 l0 -13.61 1.06 -0.45 c0.72 -0.34 5.18 -0.49 15.20 -0.57 l14.21 -0.11 1.70 -1.40 c0.95 -0.79 2.04 -2.12 2.42 -2.91 0.64 -1.47 0.64 -1.55 -0.15 -3.21 -0.53 -1.02 -1.40 -2.04 -2.23 -2.57 -1.40 -0.87 -1.59 -0.87 -16.71 -1.06 l-15.31 -0.19 0 -10.62 c0 -9.94 0.04 -10.70 0.72 -11.45 0.42 -0.45 0.95 -0.79 1.17 -0.79 0.26 0 0.68 -0.26 0.95 -0.57 0.42 -0.49 2.72 -0.57 16.60 -0.57 l16.10 0 1.85 -1.25 c4.39 -2.87 4.61 -6.16 0.64 -8.85 l-1.29 -0.87 -16.67 0 c-9.87 0 -17.35 0.19 -18.33 0.42 -5.90 1.36 -10.81 6.28 -12.13 12.21 -0.26 1.17 -0.38 12.13 -0.38 31.87 0 33.11 -0.08 31.72 2.34 33.42 2.34 1.70 4.35 1.85 5.67 0.45z m61.84 0.49 c1.55 -0.79 3.06 -2.57 3.48 -4.04 0.23 -0.79 0.38 -14.29 0.38 -35.50 l0 -34.25 -0.83 -1.66 c-1.17 -2.31 -3.06 -3.52 -4.99 -3.29 -1.78 0.26 -3.18 1.21 -4.20 2.95 -0.76 1.25 -0.76 2.08 -0.87 35.61 -0.04 22.57 0.04 34.82 0.30 35.76 0.53 1.97 1.74 3.40 3.55 4.23 1.89 0.83 1.89 0.87 3.18 0.19z m54.28 -0.04 c0.57 -0.30 1.29 -0.57 1.55 -0.57 1.06 0 2.87 -1.02 5.71 -3.18 0.83 -0.64 2.38 -1.81 3.48 -2.61 2.65 -2 6.31 -6.62 7.86 -9.90 4.08 -8.58 3.86 -17.28 -0.68 -26.01 -2.99 -5.75 -9.41 -11.42 -15.69 -13.80 -4.50 -1.74 -6.88 -2.12 -11.61 -1.81 -13.04 0.79 -24.12 9.98 -27.48 22.76 -3.89 14.78 6.31 30.73 22.34 34.89 3.67 0.98 12.82 1.10 14.52 0.23z m62.07 -0.15 c2.91 -1.32 4.23 -4.46 2.84 -6.73 -1.29 -2.04 -2.46 -2.53 -6.65 -2.80 -2.08 -0.15 -4.54 -0.45 -5.44 -0.76 -2.23 -0.68 -5.07 -3.33 -6.35 -5.93 l-1.06 -2.15 0 -14.18 0 -14.18 7.94 -0.19 c5.22 -0.11 8.20 -0.34 8.73 -0.64 1.59 -0.91 3.18 -3.10 3.18 -4.39 0 -1.55 -1.17 -3.48 -2.72 -4.42 -1.13 -0.68 -1.93 -0.76 -8.81 -0.76 -4.16 0 -7.75 -0.15 -8.01 -0.30 -0.30 -0.19 -0.49 -2.72 -0.57 -8.58 -0.11 -9.30 -0.30 -10.06 -2.99 -11.83 -2.38 -1.63 -5.78 -0.34 -7.18 2.72 -0.68 1.47 -0.72 2.99 -0.72 27.18 0 16.78 0.15 26.58 0.42 28.35 1.44 9.34 7.86 16.82 16.63 19.32 4.12 1.17 8.54 1.29 10.77 0.26z m46.16 0.15 c2.87 -0.68 7.18 -2.34 8.39 -3.29 0.64 -0.49 1.55 -0.68 3.40 -0.68 2.49 0 2.49 0 3.25 1.40 0.87 1.63 3.25 3.14 4.95 3.14 0.79 0 1.47 -0.38 2.31 -1.21 2.49 -2.65 2.46 -2.27 2.31 -18.18 l-0.15 -14.44 -1.06 -3.21 c-1.85 -5.63 -5.25 -10.92 -9.19 -14.18 -2.80 -2.34 -7.56 -5.03 -10.85 -6.12 -2.72 -0.95 -3.59 -1.02 -8.17 -1.02 -4.20 0 -5.59 0.15 -7.94 0.87 -8.17 2.46 -14.82 8.13 -18.52 15.73 -2.57 5.29 -3.18 7.79 -3.18 13.04 0 3.89 0.11 4.73 1.25 7.94 2.87 8.47 7.67 14.02 15.39 17.77 5.78 2.87 12.32 3.74 17.80 2.46z m-250.10 -32.28 c1.47 -1.47 1.85 -2.08 1.85 -3.10 0 -1.93 -1.25 -3.67 -3.25 -4.54 -1.63 -0.72 -2.38 -0.76 -13.31 -0.64 -11.19 0.11 -11.64 0.15 -12.93 0.95 -1.70 1.06 -3.18 3.55 -2.80 4.76 0.49 1.55 1.78 2.99 3.33 3.70 1.40 0.64 2.65 0.72 13.42 0.72 l11.87 0 1.81 -1.85z m-337.99 -7.30 c1.81 -0.95 3.40 -2.91 3.40 -4.27 0 -1.21 -1.47 -3.25 -2.99 -4.12 -1.29 -0.76 -1.85 -0.76 -28.92 -0.64 -30.66 0.11 -29.26 0 -31.07 2.65 -1.10 1.63 -1.13 2.49 -0.15 4.08 0.83 1.40 2.19 2.38 3.89 2.76 0.64 0.19 13.12 0.30 27.67 0.34 l26.50 0.04 1.66 -0.83z m20.64 -22.91 c3.18 -2.76 3.10 -5.44 -0.23 -7.75 -0.83 -0.60 -2.80 -0.64 -24.31 -0.64 -25.63 0 -25.06 -0.04 -26.73 2.27 -1.13 1.63 -1.10 3.06 0.11 4.65 2 2.61 0.91 2.53 26.73 2.49 l23.25 0 1.17 -1.02z m-69.59 -3.06 c2.87 -1.32 5.03 -4.61 4.57 -7.03 -0.64 -3.25 -4.01 -6.24 -7.07 -6.24 -2.99 0.04 -6.16 2.61 -7.11 5.71 -0.42 1.36 -0.38 1.70 0.45 3.52 1.85 4.01 5.63 5.67 9.15 4.04z"/>
  <path d="M70.54 143.80 c-2.49 -0.79 -5.18 -3.52 -6.09 -6.16 -0.83 -2.53 -0.64 -7.11 0.38 -9.26 0.91 -1.93 2.95 -3.93 4.88 -4.80 1.93 -0.87 8.28 -1.02 10.21 -0.19 1.74 0.72 3.93 2.72 4.88 4.54 0.72 1.32 0.83 2.15 0.83 5.52 0 4.57 -0.57 6.05 -3.18 8.43 -2.65 2.38 -7.71 3.21 -11.91 1.93z"/>
  <path d="M162.55 144.07 c-2.61 -0.79 -4.91 -2.76 -6.28 -5.33 -1.02 -1.93 -1.02 -8.28 0 -10.36 1.70 -3.44 4.76 -5.33 9.19 -5.75 3.82 -0.38 6.46 0.49 8.81 2.84 2.12 2.12 3.02 4.54 3.02 7.98 0 4.61 -2 8.17 -5.75 10.06 -1.47 0.76 -2.31 0.91 -4.91 0.87 -1.74 0 -3.55 -0.15 -4.08 -0.30z"/>
  <path d="M571.95 129.06 c-7.26 -1.40 -12.89 -6.73 -14.55 -13.84 -1.51 -6.50 0.11 -13.46 4.20 -18.03 3.82 -4.23 8.58 -5.90 16.18 -5.63 3.78 0.11 4.42 0.26 6.73 1.36 4.91 2.38 8.81 7.45 9.79 12.74 0.64 3.40 0.23 9.38 -0.79 12.02 -1.74 4.61 -5.90 8.73 -10.55 10.51 -2.08 0.79 -8.69 1.32 -11 0.87z"/>
  <path d="M681.88 128.68 c-3.25 -0.76 -5.86 -2.27 -8.28 -4.65 -3.63 -3.63 -5.25 -7.90 -5.25 -13.65 0 -3.82 0.79 -7.37 2.15 -9.90 1.36 -2.46 4.76 -5.63 7.71 -7.14 2.42 -1.25 2.46 -1.25 8.77 -1.40 l6.35 -0.15 2.53 1.25 c4.50 2.19 8.09 6.58 9.38 11.49 0.30 1.06 0.53 3.59 0.53 5.67 0 6.28 -1.36 9.90 -5.14 13.72 -4.69 4.69 -11.72 6.50 -18.75 4.76z"/>
 </g>
 <g fill="#113443">
  <path d="M69.78 154.39 c-3.89 -0.95 -6.96 -2.72 -10.09 -5.82 -4.08 -4.01 -5.86 -7.90 -6.24 -13.42 -0.60 -8.81 4.12 -17.09 11.95 -20.94 2.68 -1.32 3.82 -1.66 6.92 -2 4.84 -0.53 7.94 0 12.13 2.08 10.66 5.33 15.01 18.41 9.64 29.11 -1.63 3.14 -6.16 7.71 -9.38 9.30 -4.23 2.15 -10.28 2.84 -14.93 1.70z m8.05 -11.72 c2.31 -0.68 4.65 -2.61 5.82 -4.84 1.13 -2.19 1.13 -6.58 0 -8.77 -0.95 -1.81 -3.10 -3.82 -4.88 -4.54 -1.81 -0.76 -6.05 -0.64 -7.94 0.19 -6.24 2.84 -7.67 10.70 -2.80 15.57 2.76 2.76 5.97 3.55 9.79 2.38z"/>
  <path d="M161.61 154.46 c-1.25 -0.30 -2.95 -0.83 -3.74 -1.17 -4.99 -2.12 -10.17 -7.30 -11.57 -11.53 -0.26 -0.83 -0.60 -1.51 -0.72 -1.51 -0.11 0 -9.15 -0.04 -20.07 -0.11 -22.23 -0.08 -21.77 -0.04 -23.51 -2.84 -1.70 -2.80 -0.95 -5.93 1.97 -7.90 l1.25 -0.87 19.92 0 c15.50 0 20.04 -0.11 20.30 -0.45 0.23 -0.26 0.68 -1.32 0.98 -2.34 0.95 -2.84 2.72 -5.29 5.71 -7.94 4.61 -4.12 8.39 -5.52 14.86 -5.52 5.93 0 9.90 1.55 14.06 5.44 2.46 2.34 4.20 4.91 5.33 8.09 l0.87 2.34 2.72 0 c3.33 0 4.84 -0.83 6.16 -3.40 0.87 -1.70 0.87 -1.74 0.76 -14.74 -0.15 -12.97 -0.15 -13.04 -1.17 -16.10 -2.46 -7.37 -8.24 -12.82 -15.57 -14.71 -2.91 -0.76 -27.37 -0.83 -28.09 -0.11 -0.34 0.34 -0.45 3.67 -0.45 12.59 0 11.83 -0.04 12.17 -0.83 13.80 -0.98 1.89 -3.18 3.40 -5.03 3.40 -2.04 0 -4.42 -1.51 -5.37 -3.40 -0.87 -1.66 -0.87 -1.74 -0.87 -20.26 0 -17.39 -0.04 -18.75 -0.76 -21.55 -1.81 -6.99 -7.64 -12.89 -14.55 -14.71 -1.93 -0.49 -7.18 -0.57 -38.75 -0.57 -20.07 0 -36.67 0.15 -36.90 0.30 -0.19 0.19 -1.36 0.53 -2.61 0.79 -1.25 0.26 -2.65 0.72 -3.10 1.02 -0.45 0.30 -1.10 0.53 -1.36 0.53 -0.30 0 -0.83 0.34 -1.21 0.76 -0.38 0.42 -0.87 0.76 -1.13 0.76 -0.87 0 -5.03 4.76 -6.20 7.11 -2.27 4.50 -2.31 4.76 -2.31 30.51 0 25.55 0.04 26.05 2.15 29.67 2.31 3.89 5.52 6.39 10.36 7.98 3.14 1.02 3.93 1.63 4.88 3.52 0.95 1.97 0.95 3.36 0 5.41 -2.57 5.75 -12.32 3.40 -20.60 -4.95 -3.52 -3.55 -5.29 -6.12 -6.88 -10.06 -2 -5.03 -2.04 -5.59 -1.93 -32.85 l0.11 -25.18 1.06 -3.33 c1.89 -6.09 4.73 -10.77 9 -14.86 4.04 -3.82 8.43 -6.35 14.14 -8.17 2.65 -0.83 2.72 -0.83 40.45 -0.98 39.92 -0.15 40.86 -0.11 45.85 1.59 12.06 4.12 20.07 13.91 22.19 27.14 l0.23 1.36 14.06 0.19 c12.82 0.15 14.33 0.23 17.20 0.98 11.76 3.02 20.45 11.34 24.50 23.48 l1.06 3.21 0.15 15.42 c0.15 16.82 0.08 17.54 -2.12 21.55 -0.98 1.81 -5.41 6.31 -6.20 6.31 -0.23 0 -0.72 0.26 -1.10 0.60 -0.79 0.72 -4.42 1.63 -6.77 1.70 -0.95 0 -2.53 0.23 -3.59 0.45 -1.78 0.42 -1.97 0.60 -3.02 2.61 -2.99 5.63 -7.75 9.72 -13.04 11.15 -2.76 0.76 -8.58 0.95 -11.15 0.34z m8.81 -12.10 c3.33 -1.70 5.75 -5.44 5.75 -8.92 0 -3.97 -3.14 -8.17 -6.96 -9.26 -3.44 -1.02 -7.18 -0.04 -9.79 2.61 -1.97 1.97 -2.72 3.82 -2.72 6.84 0.04 2.95 0.60 4.46 2.61 6.54 2.87 3.10 7.56 4.01 11.11 2.19z"/>
  <path d="M281.25 140.06 c-3.21 -0.60 -8.66 -2.42 -11.53 -3.89 -11.53 -5.78 -19.96 -17.43 -21.77 -29.90 -0.64 -4.69 -0.26 -12.21 0.91 -16.67 1.81 -6.84 5.37 -13.08 10.58 -18.41 5.07 -5.22 11 -8.77 18.22 -10.92 3.25 -0.98 3.82 -1.06 11.72 -1.06 8.09 -0.04 8.43 0 11.72 1.02 9.60 2.99 18.45 9.49 19.32 14.18 0.38 1.93 -0.49 4.23 -2.19 5.86 -1.32 1.25 -1.66 1.40 -3.52 1.40 -2.68 0 -3.52 -0.38 -6.05 -2.65 -4.16 -3.78 -8.69 -6.01 -14.29 -7.07 -2.80 -0.53 -3.52 -0.49 -8.09 0.08 -4.80 0.60 -8.73 1.78 -9.34 2.80 -0.15 0.19 -0.79 0.49 -1.47 0.60 -3.52 0.79 -9.38 6.84 -12.06 12.59 -1.85 3.86 -2.61 7.52 -2.61 12.21 0 6.01 1.63 11.11 5.10 15.95 3.97 5.59 9.49 9.34 16.41 11.08 9.22 2.34 18.22 0.15 25.67 -6.28 3.40 -2.91 4.35 -3.40 6.46 -3.40 3.82 0 6.69 3.74 5.97 7.75 -0.76 3.89 -11.08 11.49 -18.37 13.46 -0.95 0.26 -1.85 0.60 -2.04 0.79 -0.23 0.15 -0.95 0.30 -1.59 0.30 -0.68 0 -1.36 0.19 -1.47 0.38 -0.34 0.57 -12.32 0.42 -15.69 -0.19z"/>
  <path d="M361.01 139.91 c-14.10 -3.06 -25.21 -12.17 -30.24 -24.80 -2.23 -5.59 -2.80 -8.81 -2.80 -15.31 0.04 -5.07 0.19 -6.35 1.02 -9.56 4.16 -15.61 15.61 -26.84 31.22 -30.54 2.49 -0.60 4.61 -0.79 9.64 -0.83 5.86 -0.04 6.80 0.08 10.09 0.95 7.03 1.89 13.34 5.18 17.69 9.22 2.65 2.42 3.44 3.93 3.44 6.50 0 3.21 -2.31 5.71 -5.59 6.05 -2.27 0.19 -3.63 -0.42 -6.43 -2.99 -3.63 -3.29 -9.26 -5.86 -14.82 -6.77 -3.97 -0.64 -8.32 -0.15 -14.18 1.59 -6.62 1.93 -12.82 7.41 -16.07 14.10 -1.85 3.86 -2.61 6.69 -2.91 10.96 -0.72 10.85 5.48 21.40 15.46 26.42 4.57 2.31 8.47 3.25 13.12 3.25 7.52 0 14.18 -2.65 19.73 -7.83 3.74 -3.52 7.86 -3.63 10.58 -0.38 1.55 1.89 1.59 5.56 0.04 7.71 -2.95 4.16 -11.87 9.72 -18.60 11.61 -3.59 1.02 -4.61 1.13 -10.58 1.21 -5.29 0.08 -7.26 -0.04 -9.83 -0.57z"/>
  <path d="M413.71 108.91 c-3.18 -1.44 -4.46 -5.29 -2.76 -8.35 0.49 -0.83 1.47 -1.93 2.23 -2.38 1.29 -0.79 1.70 -0.83 13.95 -0.95 11.04 -0.11 12.85 -0.04 14.29 0.49 4.31 1.66 5.07 6.92 1.47 10.32 l-1.70 1.59 -12.97 0 c-11.83 0 -13.12 -0.08 -14.52 -0.72z"/>
 </g>
 <g fill="#dd7125">
  <path d="M463 140.25 c-1.63 -0.49 -3.18 -1.78 -3.82 -3.14 -0.53 -1.10 -0.60 -4.88 -0.64 -32.43 -0.04 -21.85 0.08 -31.72 0.34 -33 1.40 -6.05 6.24 -10.92 12.17 -12.29 0.98 -0.23 8.85 -0.42 19.47 -0.42 l17.80 0 1.29 0.87 c0.68 0.45 1.66 1.44 2.15 2.15 0.76 1.10 0.87 1.66 0.76 3.52 -0.19 2.57 -0.95 3.74 -3.55 5.44 l-1.85 1.25 -16.10 0 c-13.87 0 -16.18 0.08 -16.60 0.57 -0.26 0.30 -0.68 0.57 -0.95 0.57 -0.23 0 -0.76 0.34 -1.17 0.79 -0.68 0.76 -0.72 1.47 -0.72 10.32 l0 9.49 15.31 0.19 c15.12 0.19 15.31 0.19 16.71 1.06 1.63 1.02 2.95 3.48 2.95 5.52 0 1.93 -1.13 3.93 -3.06 5.52 l-1.66 1.32 -14.18 0.11 c-10.06 0.08 -14.48 0.23 -15.23 0.57 l-1.02 0.45 0 13.50 c0.04 14.82 0.08 14.36 -2.31 17.12 -1.06 1.21 -1.36 1.32 -3.14 1.29 -1.06 0 -2.38 -0.15 -2.95 -0.34z"/>
  <path d="M525.23 139.91 c-1.81 -0.83 -3.02 -2.27 -3.55 -4.23 -0.26 -0.95 -0.34 -13.57 -0.30 -36.90 0.11 -34.66 0.11 -35.50 0.87 -36.74 1.25 -2.12 2.53 -2.84 5.41 -2.99 2.15 -0.11 2.72 0 3.86 0.76 0.72 0.49 1.70 1.63 2.19 2.57 l0.83 1.66 0 35.38 c0 21.96 -0.15 35.84 -0.38 36.63 -0.42 1.47 -1.93 3.25 -3.48 4.04 -1.40 0.72 -3.59 0.64 -5.44 -0.19z"/>
  <path d="M568.17 139.83 c-11.15 -2.91 -19.66 -11.38 -22.53 -22.45 -0.98 -3.78 -0.87 -10.74 0.19 -14.71 2.76 -10.28 10.21 -18.11 20.56 -21.59 3.67 -1.21 11.57 -1.74 15.46 -0.98 6.20 1.25 11.98 4.50 16.67 9.45 3.25 3.48 5.41 7.30 6.92 12.32 0.87 2.95 1.02 4.08 1.02 8.32 0 5.59 -0.72 9.07 -2.91 13.61 -1.55 3.29 -5.22 7.90 -7.86 9.90 -1.10 0.79 -2.65 1.97 -3.48 2.61 -2.84 2.15 -4.65 3.18 -5.71 3.18 -0.26 0 -0.98 0.26 -1.55 0.57 -1.74 0.91 -13.08 0.76 -16.78 -0.23z m13.68 -12.82 c12.17 -4.54 15.54 -20.41 6.28 -29.52 -4.42 -4.35 -9.60 -5.75 -16.33 -4.35 -7.03 1.44 -12.29 7.11 -13.50 14.52 -1.55 9.30 5.10 18.37 14.78 20.26 1.89 0.34 6.73 -0.11 8.77 -0.91z"/>
  <path d="M637.16 140.36 c-10.09 -1.32 -18.22 -9.56 -19.81 -20.04 -0.26 -1.78 -0.42 -11.87 -0.42 -29.49 0 -25.29 0.04 -26.84 0.72 -28.31 1.06 -2.31 2.72 -3.33 5.71 -3.48 2.08 -0.11 2.65 0 3.74 0.76 2.68 1.78 2.87 2.53 2.99 11.83 0.08 5.86 0.26 8.39 0.57 8.58 0.26 0.15 3.86 0.30 8.05 0.30 7.26 0 7.67 0.04 8.88 0.87 1.89 1.25 3.14 3.97 2.80 6.16 -0.26 1.74 -1.74 3.86 -3.36 4.80 -0.53 0.30 -3.52 0.53 -8.73 0.64 l-7.94 0.19 0 13.04 0 13.04 1.06 2.15 c1.29 2.61 4.12 5.25 6.35 5.93 0.91 0.30 3.36 0.60 5.44 0.76 4.20 0.26 5.37 0.76 6.65 2.80 1.06 1.70 0.87 5.25 -0.38 7.03 -1.44 2 -3.40 2.68 -7.60 2.61 -1.97 0 -4.08 -0.11 -4.73 -0.19z"/>
  <path d="M678.97 139.83 c-5.97 -1.55 -12.25 -5.44 -15.76 -9.83 -2.61 -3.21 -4.01 -5.86 -5.52 -10.17 -1.17 -3.40 -1.21 -3.86 -1.21 -9.07 -0.04 -6.50 0.45 -8.58 3.18 -14.18 3.70 -7.60 10.36 -13.23 18.52 -15.73 2.46 -0.76 3.67 -0.87 9.07 -0.91 5.82 0 6.46 0.08 9.30 1.02 3.33 1.13 8.05 3.82 10.85 6.16 3.89 3.25 7.33 8.54 9.19 14.18 l1.06 3.21 0.15 15.57 c0.15 17.20 0.19 16.63 -2.31 19.32 -1.06 1.10 -1.36 1.21 -3.44 1.21 -2.87 0 -4.99 -1.10 -6.09 -3.14 -0.64 -1.21 -0.95 -1.40 -2.12 -1.40 -0.76 0 -1.78 0.30 -2.27 0.68 -1.21 0.95 -5.52 2.61 -8.39 3.29 -3.44 0.83 -10.74 0.72 -14.21 -0.23z m11.34 -12.06 c4.91 -0.95 10.40 -4.99 12.40 -9.19 4.46 -9.26 0.91 -20.07 -7.98 -24.42 l-2.57 -1.29 -5.18 0.19 c-4.99 0.15 -5.33 0.23 -7.64 1.40 -2.95 1.51 -6.35 4.69 -7.71 7.14 -3.74 6.88 -2.46 15.73 3.10 21.28 4.20 4.20 9.87 5.93 15.57 4.88z"/>
  <path d="M46.99 100.93 c-2.95 -0.68 -4.65 -2.87 -4.65 -5.86 0 -1.40 0.26 -2.27 0.91 -3.25 1.81 -2.65 0.30 -2.53 32.17 -2.68 28.39 -0.11 28.73 -0.11 30.05 0.68 2 1.17 3.02 2.91 3.02 5.25 0 2.49 -1.10 4.23 -3.40 5.41 l-1.66 0.83 -27.63 -0.04 c-15.16 -0.04 -28.16 -0.15 -28.81 -0.34z"/>
  <path d="M74.55 77.99 c-0.68 -0.34 -1.70 -1.21 -2.27 -1.93 -1.40 -1.81 -1.44 -4.95 -0.11 -6.84 1.70 -2.38 0.98 -2.31 27.86 -2.31 26.65 0 25.48 -0.11 27.14 2.15 0.79 1.06 1.21 4.01 0.83 5.56 -0.11 0.53 -0.95 1.66 -1.81 2.49 l-1.59 1.51 -24.42 0 c-21.81 0 -24.53 -0.08 -25.63 -0.64z"/>
  <path d="M50.20 75.08 c-2.46 -0.68 -4.39 -2.27 -5.44 -4.54 -1.47 -3.18 -1.06 -6.24 1.25 -8.88 1.70 -2.04 3.89 -2.80 7.22 -2.61 3.40 0.19 5.25 1.32 6.65 4.12 2.42 4.91 0.11 10.28 -5.14 11.87 -2.27 0.68 -2.23 0.64 -4.54 0.04z"/>
 </g>
</svg>